<?xml version="1.0" encoding="UTF-8"?>
<svg width="500" height="186" version="1.1" viewBox="0 0 500 186" xml:space="preserve" xmlns="http://www.w3.org/2000/svg" xmlns:cc="http://creativecommons.org/ns#" xmlns:dc="http://purl.org/dc/elements/1.1/" xmlns:rdf="http://www.w3.org/1999/02/22-rdf-syntax-ns#"><metadata><rdf:RDF><cc:Work rdf:about=""><dc:format>image/svg+xml</dc:format><dc:type rdf:resource="http://purl.org/dc/dcmitype/StillImage"/><dc:title/></cc:Work></rdf:RDF></metadata><g transform="matrix(1.3333 0 0 -1.3333 -622.91 1084.3)"><g fill="#264a8b"><path d="m489 677.19c-10.804 0-18.064 8.2672-18.064 21.314 0 12.576 7.5584 21.31 18.362 21.31 8.44 0 12.926-3.9542 15.644-10.329l-7.8523-3.2455c-1.5385 3.0683-3.427 5.3717-7.9128 5.3717-6.2014 0-9.7408-5.4322-9.7408-13.107 0-7.6146 3.5999-13.228 9.8013-13.228 5.6656 0 7.6146 2.6621 8.0856 6.2576h-6.5515v7.7356h14.819v-5.4279c0-10.631-7.0269-16.651-16.59-16.651"/><path d="m523.48 701.63c-3.8937 0-5.7261-3.5437-5.7261-8.3233 0-4.784 1.8323-8.2672 5.7261-8.2672 3.8981 0 5.7866 3.9542 5.7866 8.2672 0 4.7235-1.8885 8.3233-5.7866 8.3233m0-24.443c-8.09 0-13.993 6.612-13.993 16.119 0 9.5031 5.9033 16.176 13.993 16.176 8.09 0 14.054-6.6725 14.054-16.176 0-9.5074-5.9638-16.119-14.054-16.119"/><path d="m542.2 677.84v38.968l8.1462 4.0709v-43.038z"/><path d="m573.67 699.15c-1.2403 1.7113-3.1288 2.6578-5.4927 2.6578-3.1288 0-4.8402-2.714-4.8402-7.9128 0-6.3743 2.1262-9.0321 5.3155-9.0321 2.5411 0 3.8376 1.0631 5.0173 2.5973zm0-21.314v1.949c-1.5342-1.357-3.5999-2.5973-6.5558-2.5973-6.612 0-12.04 4.9568-12.04 16.53 0 9.2698 4.3691 15.765 12.04 15.765 2.7183 0 5.0778-1.0631 6.5558-2.4201v9.7408l8.1462 4.0752v-43.043z"/><path d="m599.71 702.4c-2.9516 0-4.784-2.4201-5.0822-5.5489h10.631c-0.23769 2.7744-1.8885 5.5489-5.5489 5.5489m13.341-11.69h-18.535c0.29387-4.2524 3.4227-5.8428 6.3743-5.8428 2.2429 0 4.1314 0.82542 5.3155 2.1824l5.7823-4.8402c-2.4806-3.1893-6.9664-5.0217-11.098-5.0217-8.9154 0-14.585 6.3181-14.585 16.119 0 9.5031 5.9681 16.176 13.816 16.176 8.2672 0 13.051-7.3207 13.051-16.176 0-1.1798-0.0605-2.0052-0.12101-2.5973"/><path d="m636.5 677.84v16.768c0 5.5489-1.8885 7.204-5.255 7.204s-5.3112-1.6552-5.3112-7.0269v-16.945h-8.1505v30.994h8.1505v-2.0657c1.4175 1.478 4.0104 2.7183 7.2602 2.7183 7.9128 0 11.452-5.4322 11.452-14.17v-17.476z"/><path d="m665.73 677.19c-6.9102 0-12.93 2.8954-16.059 7.4979l5.9638 5.3155c2.8911-3.3665 6.612-4.7278 10.566-4.7278 4.9007 0 7.204 1.3613 7.204 4.4901 0 2.6534-1.4175 3.8376-9.2093 5.6051-7.6189 1.7762-12.93 4.1962-12.93 12.342 0 7.4979 6.612 12.1 14.758 12.1 6.4348 0 11.158-2.4201 15.056-6.491l-5.9638-5.7866c-2.6578 2.7183-5.6051 4.2524-9.3864 4.2524-4.4296 0-5.9033-1.8928-5.9033-3.7209 0-2.5973 1.7718-3.4227 8.3233-4.9612 6.5558-1.5342 13.816-3.777 13.816-12.749 0-7.8566-4.9612-13.168-16.236-13.168"/><path d="m699.27 701.63c-3.898 0-5.7261-3.5437-5.7261-8.3233 0-4.784 1.828-8.2672 5.7261-8.2672 3.8981 0 5.7866 3.9542 5.7866 8.2672 0 4.7235-1.8885 8.3233-5.7866 8.3233m0-24.443c-8.09 0-13.993 6.612-13.993 16.119 0 9.5031 5.9033 16.176 13.993 16.176 8.0856 0 14.049-6.6725 14.049-16.176 0-9.5074-5.9638-16.119-14.049-16.119"/><path d="m736.11 677.84v2.0657c-1.4175-1.4737-4.0147-2.714-7.2602-2.714-7.9128 0-11.452 5.4322-11.452 14.166v17.476h8.1462v-16.768c0-5.5489 1.8885-7.1997 5.255-7.1997 3.3622 0 5.3112 1.6508 5.3112 7.0269v16.941h8.1462v-30.994z"/><path d="m768.35 699.33c-1.2965 1.1798-2.8911 2.0095-4.7235 2.0095-3.1893 0-5.255-1.3613-5.255-6.733v-16.763h-8.1462v30.99h8.1462v-2.0657c1.4175 1.478 3.4832 2.7183 6.3786 2.7183 2.6578 0 4.663-1.0631 5.7261-2.1867z"/><path d="m785.65 677.19c-8.0856 0-14.52 6.612-14.52 16.115 0 9.5074 6.2576 16.18 14.875 16.18 5.9033 0 9.6846-2.8954 12.282-6.8497l-5.3717-5.4322c-1.8324 2.6016-3.777 4.4296-7.083 4.4296-3.898 0-6.4391-3.2498-6.4391-8.3277 0-4.9568 2.5411-8.2628 6.4391-8.2628 3.185 0 5.1945 1.4175 7.3207 3.9542l5.1945-4.8963c-3.0121-4.0147-6.5558-6.9102-12.697-6.9102"/><path d="m813.64 702.4c-2.9516 0-4.784-2.4201-5.0778-5.5489h10.627c-0.23769 2.7744-1.8885 5.5489-5.5489 5.5489m13.341-11.69h-18.535c0.29387-4.2524 3.4227-5.8428 6.3743-5.8428 2.2429 0 4.1314 0.82542 5.3155 2.1824l5.7823-4.8402c-2.4806-3.1893-6.9664-5.0217-11.098-5.0217-8.9154 0-14.585 6.3181-14.585 16.119 0 9.5031 5.9638 16.176 13.816 16.176 8.2672 0 13.047-7.3207 13.047-16.176 0-1.1798-0.0562-2.0052-0.11668-2.5973"/><path d="m833.07 714.82h-1.5298v-1.6422h1.5298c0.58342 0 0.91185 0.29386 0.91185 0.82974 0 0.57045-0.3414 0.81245-0.91185 0.81245m1.0242-2.6491 1.236-2.5195h-1.5255l-1.1582 2.338h-1.1063v-2.338h-1.3483v6.4046h2.9732c1.2403 0 2.1997-0.64823 2.1997-2.0182 0-1.102-0.58774-1.6076-1.2705-1.8669m-1.5298 5.3976c-2.7485 0-4.8272-2.0787-4.8272-4.8272s2.0787-4.8315 4.8272-4.8315 4.8315 2.083 4.8315 4.8315-2.083 4.8272-4.8315 4.8272m0-10.7c-3.3319 0-5.8687 2.5368-5.8687 5.873 0 3.3319 2.5368 5.8687 5.8687 5.8687 3.3362 0 5.8687-2.5368 5.8687-5.8687 0-3.3362-2.5324-5.873-5.8687-5.873"/></g><path d="m666.13 753.66-10.748 5.8644-6.6768-22.684-6.6725 22.684-10.752-5.8644 5.8644 10.756-7.0442 2.0657-15.64 4.6068 22.684 6.6725-5.8644 10.752 10.752-5.8687 6.6725 22.688 6.6768-22.688 10.748 5.8687-5.86-10.752 6.988-2.0571 15.696-4.6154-22.684-6.6725zm-17.381 56.085c-21.396 0-38.747-17.347-38.747-38.747 0-21.396 17.351-38.743 38.747-38.743 21.4 0 38.747 17.347 38.747 38.743 0 21.4-17.347 38.747-38.747 38.747" fill="#eab50e"/></g></svg>
